<?xml version="1.0" encoding="UTF-8"?>
<svg xmlns="http://www.w3.org/2000/svg" xmlns:xlink="http://www.w3.org/1999/xlink" width="250px" height="118px" viewBox="0 0 250 118" version="1.1">
<g id="surface1">
<path style=" stroke:none;fill-rule:nonzero;fill:rgb(0%,0%,0%);fill-opacity:1;" d="M 11.101562 56.21875 L 11.101562 86.273438 L 229.796875 86.273438 L 229.796875 26.160156 L 11.101562 26.160156 Z M 227.574219 56.21875 L 227.574219 84.605469 L 12.765625 84.605469 L 12.765625 27.832031 L 227.574219 27.832031 Z M 227.574219 56.21875 "/>
<path style=" stroke:none;fill-rule:nonzero;fill:rgb(0%,0%,0%);fill-opacity:1;" d="M 17.207031 56.21875 L 17.207031 80.707031 L 120.449219 80.707031 L 120.449219 31.726562 L 17.207031 31.726562 Z M 68.773438 48.144531 C 71.214844 49.371094 72.046875 52.878906 69.9375 52.878906 C 69.328125 52.878906 68.828125 52.542969 68.828125 52.097656 C 68.828125 50.652344 67.164062 49.539062 64.996094 49.539062 C 62.554688 49.539062 61.445312 50.539062 61.722656 52.433594 C 61.832031 53.433594 62.609375 53.992188 65.496094 54.992188 C 71.492188 57.050781 73.15625 60.28125 69.992188 63.507812 C 68.660156 64.84375 67.882812 65.121094 65.773438 65.121094 C 62.667969 65.121094 60.390625 64.007812 59.503906 62.0625 C 58.558594 60.058594 58.671875 59.554688 59.945312 59.554688 C 60.613281 59.554688 61.277344 60.113281 61.554688 60.890625 C 62.5 63.230469 67.050781 63.785156 68.496094 61.671875 C 69.382812 60.445312 68.882812 58.609375 67.550781 58.164062 C 61.667969 56.105469 60.445312 55.4375 59.667969 53.933594 C 57.28125 49.316406 63.445312 45.363281 68.773438 48.144531 Z M 105.851562 49.203125 C 107.460938 51.097656 107.570312 52.878906 106.074219 52.878906 C 105.40625 52.878906 104.683594 52.265625 104.242188 51.320312 C 103.628906 50.09375 103.074219 49.761719 101.242188 49.648438 C 99.023438 49.480469 97.136719 50.484375 97.136719 51.820312 C 97.136719 52.878906 99.410156 54.546875 101.742188 55.160156 C 106.683594 56.382812 108.625 59.722656 106.40625 63.117188 C 104.019531 66.792969 95.582031 65.179688 94.75 60.890625 C 94.582031 59.777344 94.75 59.554688 95.804688 59.554688 C 96.523438 59.554688 97.136719 59.835938 97.136719 60.222656 C 97.136719 61.671875 99.023438 62.894531 101.300781 62.894531 C 103.742188 62.894531 104.90625 62.171875 104.90625 60.613281 C 104.90625 59.109375 103.519531 58.054688 100.246094 57.109375 C 96.859375 56.105469 94.914062 54.15625 94.914062 51.820312 C 94.914062 48.757812 97.359375 47.199219 101.519531 47.476562 C 103.964844 47.644531 104.796875 47.980469 105.851562 49.203125 Z M 37.746094 54.269531 C 37.746094 57.777344 37.464844 61.226562 37.132812 61.949219 C 36.355469 63.675781 34.46875 64.566406 31.582031 64.566406 C 29.75 64.566406 29.363281 64.398438 29.53125 63.5625 C 29.640625 62.894531 30.304688 62.5625 31.917969 62.449219 C 35.191406 62.226562 35.523438 61.394531 35.523438 54.15625 C 35.523438 48.257812 35.578125 47.867188 36.632812 47.867188 C 37.6875 47.867188 37.746094 48.257812 37.746094 54.269531 Z M 54.285156 48.8125 C 54.117188 49.648438 53.398438 49.871094 50.34375 49.984375 L 46.625 50.148438 L 46.625 55.105469 L 50.289062 55.105469 C 53.453125 55.105469 53.898438 55.214844 53.730469 56.050781 C 53.5625 56.886719 52.84375 57.109375 50.066406 57.21875 L 46.625 57.386719 L 46.625 62.339844 L 50.511719 62.339844 C 54.007812 62.339844 54.394531 62.449219 54.394531 63.453125 C 54.394531 64.511719 54.007812 64.566406 49.121094 64.566406 L 43.851562 64.566406 L 43.851562 47.867188 L 49.179688 47.867188 C 53.953125 47.867188 54.453125 47.980469 54.285156 48.8125 Z M 78.929688 54.214844 C 79.152344 61.503906 79.816406 62.894531 83.09375 62.894531 C 86.535156 62.894531 87.144531 61.558594 87.144531 54.269531 L 87.144531 47.867188 L 89.921875 47.867188 L 89.753906 54.101562 C 89.640625 57.941406 89.253906 61.003906 88.808594 61.949219 C 86.8125 66.070312 80.152344 66.234375 77.707031 62.226562 C 76.765625 60.667969 76.597656 59.390625 76.597656 54.101562 C 76.597656 48.3125 76.652344 47.867188 77.652344 47.867188 C 78.652344 47.867188 78.761719 48.425781 78.929688 54.214844 Z M 78.929688 54.214844 "/>
<path style=" stroke:none;fill-rule:nonzero;fill:rgb(0%,0%,0%);fill-opacity:1;" d="M 158.746094 47.699219 C 153.195312 50.59375 152.640625 59.722656 157.804688 63.175781 C 162.300781 66.070312 169.515625 63.675781 170.679688 58.832031 C 171.070312 57.386719 170.960938 57.332031 169.128906 57.332031 C 167.738281 57.332031 166.683594 57.777344 165.742188 58.722656 C 162.464844 62.003906 157.804688 59 158.96875 54.324219 C 159.746094 51.207031 162.910156 50.261719 165.574219 52.320312 C 166.796875 53.324219 170.960938 53.933594 170.960938 53.15625 C 170.960938 52.933594 170.570312 52.097656 170.125 51.207031 C 168.183594 47.476562 162.523438 45.753906 158.746094 47.699219 Z M 158.746094 47.699219 "/>
<path style=" stroke:none;fill-rule:nonzero;fill:rgb(0%,0%,0%);fill-opacity:1;" d="M 128.441406 48.257812 C 128.609375 48.8125 129.996094 52.488281 131.4375 56.496094 L 134.160156 63.730469 L 136.378906 63.898438 L 138.65625 64.066406 L 139.875 60.835938 C 140.542969 59.054688 141.929688 55.269531 142.984375 52.433594 L 144.816406 47.3125 L 140.042969 47.3125 L 138.542969 51.765625 C 137.65625 54.214844 136.824219 56.328125 136.601562 56.496094 C 136.378906 56.605469 135.492188 54.601562 134.601562 51.988281 L 132.9375 47.3125 L 130.550781 47.3125 C 128.496094 47.3125 128.21875 47.476562 128.441406 48.257812 Z M 128.441406 48.257812 "/>
<path style=" stroke:none;fill-rule:nonzero;fill:rgb(0%,0%,0%);fill-opacity:1;" d="M 147.089844 55.660156 L 147.089844 64.007812 L 151.53125 64.007812 L 151.53125 47.3125 L 147.089844 47.3125 Z M 147.089844 55.660156 "/>
<path style=" stroke:none;fill-rule:nonzero;fill:rgb(0%,0%,0%);fill-opacity:1;" d="M 173.734375 55.660156 L 173.734375 64.007812 L 175.953125 64.007812 C 178.0625 64.007812 178.175781 63.898438 178.285156 62.171875 C 178.285156 61.226562 178.339844 60 178.285156 59.445312 C 178.175781 58.386719 179.5625 57.109375 180.339844 57.554688 C 180.617188 57.777344 181.503906 59.277344 182.28125 60.949219 L 183.671875 64.007812 L 189.164062 64.007812 L 184.945312 56.21875 L 186.832031 51.765625 L 188.664062 47.3125 L 186.167969 47.3125 C 183.949219 47.3125 183.613281 47.476562 183.171875 48.8125 C 182.058594 52.097656 181.226562 53.15625 179.839844 53.15625 C 178.675781 53.15625 178.453125 52.878906 178.398438 51.484375 C 178.230469 47.144531 178.339844 47.3125 175.953125 47.3125 L 173.734375 47.3125 Z M 173.734375 55.660156 "/>
<path style=" stroke:none;fill-rule:nonzero;fill:rgb(0%,0%,0%);fill-opacity:1;" d="M 191.496094 55.660156 L 191.496094 64.007812 L 203.152344 64.007812 L 203.152344 60.113281 L 199.878906 60.113281 C 196.4375 60.113281 195.714844 59.722656 196.269531 58.222656 C 196.492188 57.554688 197.378906 57.332031 199.324219 57.332031 L 202.042969 57.332031 L 202.042969 53.433594 L 199.324219 53.433594 C 197.492188 53.433594 196.492188 53.15625 196.324219 52.65625 C 195.882812 51.429688 196.4375 51.207031 199.65625 51.207031 L 202.597656 51.207031 L 202.597656 47.3125 L 191.496094 47.3125 Z M 191.496094 55.660156 "/>
<path style=" stroke:none;fill-rule:nonzero;fill:rgb(0%,0%,0%);fill-opacity:1;" d="M 205.929688 55.660156 L 205.929688 64.007812 L 210.3125 64.007812 L 210.480469 59.667969 L 210.644531 55.382812 L 213.699219 59.667969 C 216.417969 63.453125 216.972656 63.953125 218.582031 63.953125 L 220.359375 64.007812 L 220.359375 47.3125 L 215.976562 47.3125 L 215.808594 51.320312 L 215.640625 55.382812 L 212.699219 51.320312 C 210.035156 47.699219 209.535156 47.3125 207.816406 47.3125 L 205.929688 47.3125 Z M 205.929688 55.660156 "/>
</g>
</svg>
